<svg xmlns="http://www.w3.org/2000/svg" version="1.1" xmlns:xlink="http://www.w3.org/1999/xlink" xmlns:svgjs="http://svgjs.com/svgjs" width="1440" height="560" preserveAspectRatio="none" viewBox="0 0 1440 560"><g mask="url(&quot;#SvgjsMask1007&quot;)" fill="none"><rect width="1440" height="560" x="0" y="0" fill="rgba(10, 9, 3, 1)"></rect><path d="M -159.82840536979953,338 C -127.83,308.2 -63.83,169.6 0.17159463020046672,189 C 64.17,208.4 96.17,426 160.17159463020047,435 C 224.17,444 256.17,225.4 320.17159463020045,234 C 384.17,242.6 416.17,504.6 480.17159463020045,478 C 544.17,451.4 576.17,99.6 640.1715946302005,101 C 704.17,102.4 736.17,493.6 800.1715946302005,485 C 864.17,476.4 896.17,80.8 960.1715946302005,58 C 1024.17,35.2 1056.17,362.6 1120.1715946302004,371 C 1184.17,379.4 1216.17,99.4 1280.1715946302004,100 C 1344.17,100.6 1408.21,380.6 1440.1715946302004,374 C 1472.14,367.4 1440.03,128.4 1440,67" stroke="rgba(188, 194, 51, 0.58)" stroke-width="2"></path><path d="M -159.88203937812222,190 C -127.88,211.6 -63.88,297.6 0.11796062187777068,298 C 64.12,298.4 96.12,174 160.11796062187778,192 C 224.12,210 256.12,389.8 320.1179606218778,388 C 384.12,386.2 416.12,197 480.1179606218778,183 C 544.12,169 576.12,309.6 640.1179606218777,318 C 704.12,326.4 736.12,230.8 800.1179606218777,225 C 864.12,219.2 896.12,284.4 960.1179606218777,289 C 1024.12,293.6 1056.12,207 1120.1179606218777,248 C 1184.12,289 1216.12,489.8 1280.1179606218777,494 C 1344.12,498.2 1408.14,287.8 1440.1179606218777,269 C 1472.09,250.2 1440.02,373.8 1440,400" stroke="rgba(188, 194, 51, 0.58)" stroke-width="2"></path><path d="M -244.72502145629502,106 C -212.73,176.2 -148.73,436.4 -84.72502145629502,457 C -20.73,477.6 11.27,219.4 75.27497854370498,209 C 139.27,198.6 171.27,426.8 235.27497854370498,405 C 299.27,383.2 331.27,109.4 395.27497854370495,100 C 459.27,90.6 491.27,365 555.274978543705,358 C 619.27,351 651.27,78.8 715.274978543705,65 C 779.27,51.2 811.27,252 875.274978543705,289 C 939.27,326 971.27,247.6 1035.274978543705,250 C 1099.27,252.4 1131.27,307.2 1195.274978543705,301 C 1259.27,294.8 1306.33,222.8 1355.274978543705,219 C 1404.22,215.2 1423.05,269.4 1440,282" stroke="rgba(188, 194, 51, 0.58)" stroke-width="2"></path><path d="M -283.8594377788274,202 C -251.86,241.2 -187.86,422.8 -123.85943777882737,398 C -59.86,373.2 -27.86,72.4 36.14056222117263,78 C 100.14,83.6 132.14,422.2 196.14056222117262,426 C 260.14,429.8 292.14,90.4 356.1405622211726,97 C 420.14,103.6 452.14,424.8 516.1405622211727,459 C 580.14,493.2 612.14,302.6 676.1405622211727,268 C 740.14,233.4 772.14,327.4 836.1405622211727,286 C 900.14,244.6 932.14,18.6 996.1405622211727,61 C 1060.14,103.4 1092.14,459.6 1156.1405622211726,498 C 1220.14,536.4 1259.37,263.6 1316.1405622211726,253 C 1372.91,242.4 1415.23,406.6 1440,445" stroke="rgba(188, 194, 51, 0.58)" stroke-width="2"></path></g><defs><mask id="SvgjsMask1007"><rect width="1440" height="560" fill="#ffffff"></rect></mask></defs></svg>